<?xml version="1.0" standalone="no"?>
<!DOCTYPE svg PUBLIC "-//W3C//DTD SVG 20010904//EN"
 "http://www.w3.org/TR/2001/REC-SVG-20010904/DTD/svg10.dtd">
<svg version="1.0" xmlns="http://www.w3.org/2000/svg"
 width="740.000000pt" height="740.000000pt" viewBox="0 0 740.000000 740.000000"
 preserveAspectRatio="xMidYMid meet">
<metadata>
Created by potrace 1.11, written by Peter Selinger 2001-2013
</metadata>
<g transform="translate(0.000000,740.000000) scale(0.100000,-0.100000)"
fill="#000000" stroke="none">
<path d="M2945 6804 c-231 -41 -443 -141 -623 -296 -276 -237 -491 -679 -568
-1168 -26 -164 -26 -590 -1 -780 37 -277 67 -381 193 -679 41 -96 73 -175 72
-177 -2 -1 -39 -21 -83 -44 -272 -143 -433 -341 -476 -584 -16 -95 -6 -290 20
-391 11 -44 41 -122 66 -173 106 -214 324 -357 628 -410 l102 -18 417 -764
c229 -420 425 -770 434 -777 25 -18 74 -17 74 2 0 8 -85 415 -190 904 l-190
889 74 111 c41 61 87 142 103 181 25 63 31 70 56 70 15 0 69 -16 120 -36 339
-132 556 -184 862 -206 430 -31 937 66 1288 247 265 136 478 331 609 556 103
177 147 342 155 575 19 555 -208 1144 -659 1709 -405 507 -854 859 -1372 1074
-190 79 -467 158 -654 186 -120 18 -351 18 -457 -1z m521 -605 c135 -29 276
-80 414 -149 670 -336 1165 -838 1451 -1472 108 -239 146 -395 156 -648 6
-171 -7 -243 -64 -354 -75 -144 -224 -253 -399 -292 -161 -35 -400 -6 -664 82
-551 183 -1189 724 -1519 1288 -120 207 -226 465 -267 657 -23 103 -26 412 -6
498 51 219 232 369 497 411 90 14 289 4 401 -21z m-785 -2339 c175 -218 319
-361 516 -512 41 -32 73 -58 69 -58 -4 0 -43 18 -89 41 -197 99 -365 241 -465
394 -67 102 -175 316 -135 265 15 -19 62 -77 104 -130z m-324 -761 c104 -50
152 -180 104 -284 -40 -88 -138 -144 -230 -131 -176 24 -254 241 -133 370 62
66 175 85 259 45z"/>
<path d="M3769 4857 c-134 -127 -292 -276 -351 -332 l-107 -101 186 -204 c103
-113 189 -206 193 -208 8 -3 648 643 677 684 l22 30 -188 181 -187 181 -245
-231z"/>
</g>
</svg>
