<?xml version="1.0" encoding="utf-8"?>
<!-- Generator: Adobe Illustrator 22.0.1, SVG Export Plug-In . SVG Version: 6.00 Build 0)  -->
<svg version="1.1" id="Layer_1" xmlns="http://www.w3.org/2000/svg" xmlns:xlink="http://www.w3.org/1999/xlink" x="0px" y="0px"
	 viewBox="0 0 340.2 198.4" style="enable-background:new 0 0 340.2 198.4;" xml:space="preserve">
<style type="text/css">
	.st0{fill:#FFFFFF;}
</style>
<g>
	<path class="st0" d="M87.4,182c0,0.3,0,0.5,0.1,0.8c0.1,0.2,0.2,0.4,0.5,0.4c0.1,0,0.3,0,0.5-0.1v0.6c-0.2,0-0.4,0.1-0.6,0.1
		c-0.5,0-0.9-0.1-1-0.4c-0.2-0.2-0.2-0.6-0.2-0.9v-0.5h0c-0.2,0.6-0.6,1-1.2,1.4c-0.6,0.4-1.3,0.6-2.2,0.6c-0.9,0-1.6-0.2-2.2-0.6
		c-0.6-0.4-0.9-1.1-0.9-2c0-0.5,0.1-1,0.3-1.4c0.2-0.3,0.5-0.6,0.8-0.8c0.3-0.2,0.7-0.3,1.1-0.4c0.2,0,0.4-0.1,0.6-0.1
		c0.2,0,0.4,0,0.6,0c1.5-0.1,2.4-0.2,2.7-0.5c0.2-0.1,0.3-0.3,0.4-0.6c0-0.2,0.1-0.5,0.1-0.9c0-0.1,0-0.3-0.1-0.5
		c-0.1-0.2-0.2-0.4-0.4-0.6c-0.2-0.2-0.4-0.4-0.8-0.5c-0.3-0.1-0.8-0.2-1.3-0.2c-1.7,0-2.7,0.8-2.8,2.5h-0.7c0.1-2,1.3-3.1,3.5-3.1
		c0.8,0,1.6,0.1,2.2,0.5c0.7,0.4,1,1,1,1.9V182z M86.1,178.8c-0.2,0.1-0.5,0.1-0.8,0.2c-0.6,0.1-1.3,0.1-2,0.2
		c-1.7,0.1-2.5,0.8-2.5,2.1c0,0.6,0.2,1,0.6,1.4c0.4,0.4,1,0.6,1.8,0.6c0.8,0,1.4-0.1,1.9-0.4c0.5-0.3,0.8-0.6,1-1
		c0.2-0.4,0.4-0.7,0.4-1.1c0.1-0.3,0.1-0.6,0.1-0.7v-1.7C86.6,178.6,86.4,178.7,86.1,178.8z"/>
	<path class="st0" d="M96.9,183.7h-0.7v-2h0c-0.3,0.7-0.7,1.2-1.3,1.6c-0.6,0.4-1.3,0.6-2,0.6c-0.8,0-1.4-0.2-1.9-0.5
		c-0.5-0.3-0.8-0.6-1-1c-0.2-0.4-0.3-0.8-0.4-1.2c0-0.4-0.1-0.7-0.1-1v-5.7h0.7v5.8c0,0.2,0,0.5,0.1,0.9c0,0.3,0.2,0.7,0.3,1
		c0.2,0.3,0.4,0.6,0.8,0.8c0.3,0.2,0.8,0.4,1.4,0.4c1.1,0,1.9-0.4,2.4-1.1c0.6-0.7,0.9-1.6,0.9-2.8v-5h0.7V183.7z"/>
	<path class="st0" d="M102.3,175.1h-2v6.5c0,0.7,0.2,1.2,0.5,1.4c0.3,0.2,0.8,0.3,1.5,0.2v0.6c-0.4,0-0.7,0-1,0
		c-0.3,0-0.6-0.1-0.9-0.3c-0.3-0.1-0.4-0.4-0.6-0.7c-0.1-0.3-0.2-0.7-0.2-1.2v-6.5h-1.7v-0.6h1.7v-2.9h0.7v2.9h2V175.1z"/>
	<path class="st0" d="M104.2,175.7c0.7-0.9,1.8-1.4,3.1-1.4c1.4,0,2.4,0.5,3.1,1.4c0.7,0.9,1.1,2.1,1.1,3.4c0,1.3-0.4,2.5-1.1,3.4
		c-0.7,0.9-1.8,1.4-3.1,1.4c-1.4,0-2.4-0.5-3.1-1.4c-0.7-0.9-1.1-2.1-1.1-3.4C103.1,177.7,103.5,176.6,104.2,175.7z M104.7,182
		c0.6,0.8,1.5,1.3,2.6,1.3c1.2,0,2.1-0.5,2.7-1.3c0.6-0.8,0.9-1.8,0.9-2.9c0-1.2-0.3-2.1-0.9-3c-0.6-0.8-1.5-1.3-2.7-1.3
		c-1.2,0-2,0.5-2.6,1.3c-0.6,0.8-0.9,1.8-0.9,3C103.8,180.2,104.1,181.2,104.7,182z"/>
	<path class="st0" d="M113.2,174.5h0.7v1.9h0c0.2-0.6,0.5-1.1,1-1.5c0.5-0.4,1.2-0.6,1.9-0.6c0.4,0,0.8,0.1,1.2,0.2
		c0.3,0.1,0.6,0.3,0.8,0.4c0.4,0.4,0.7,0.8,0.8,1.4h0c0.5-1.3,1.5-1.9,2.9-2c0.9,0,1.6,0.2,2.1,0.7c0.5,0.5,0.8,1.3,0.8,2.4v6.3
		h-0.7v-6.3c0-0.6-0.1-1.1-0.3-1.4c-0.2-0.3-0.4-0.6-0.6-0.7c-0.2-0.2-0.5-0.3-0.7-0.3c-0.2,0-0.4-0.1-0.6-0.1
		c-0.8,0-1.5,0.3-2.1,0.9c-0.5,0.6-0.8,1.4-0.8,2.5v5.5H119v-6.3c0-0.6-0.1-1.1-0.3-1.4c-0.2-0.3-0.4-0.6-0.6-0.7
		c-0.2-0.2-0.5-0.3-0.7-0.3c-0.2,0-0.4-0.1-0.6-0.1c-0.7,0-1.3,0.3-1.9,0.8c-0.6,0.5-1,1.4-1,2.6v5.5h-0.7V174.5z"/>
	<path class="st0" d="M134.3,182c0,0.3,0,0.5,0.1,0.8c0.1,0.2,0.2,0.4,0.5,0.4c0.1,0,0.3,0,0.5-0.1v0.6c-0.2,0-0.4,0.1-0.6,0.1
		c-0.5,0-0.9-0.1-1-0.4c-0.2-0.2-0.2-0.6-0.2-0.9v-0.5h0c-0.2,0.6-0.6,1-1.2,1.4c-0.6,0.4-1.3,0.6-2.2,0.6c-0.9,0-1.6-0.2-2.2-0.6
		c-0.6-0.4-0.9-1.1-0.9-2c0-0.5,0.1-1,0.3-1.4c0.2-0.3,0.5-0.6,0.8-0.8c0.3-0.2,0.7-0.3,1.1-0.4c0.2,0,0.4-0.1,0.6-0.1
		c0.2,0,0.4,0,0.6,0c1.5-0.1,2.4-0.2,2.7-0.5c0.2-0.1,0.3-0.3,0.4-0.6c0-0.2,0.1-0.5,0.1-0.9c0-0.1,0-0.3-0.1-0.5
		c-0.1-0.2-0.2-0.4-0.4-0.6c-0.2-0.2-0.4-0.4-0.8-0.5c-0.3-0.1-0.8-0.2-1.3-0.2c-1.7,0-2.7,0.8-2.8,2.5h-0.7c0.1-2,1.3-3.1,3.5-3.1
		c0.8,0,1.6,0.1,2.2,0.5c0.7,0.4,1,1,1,1.9V182z M133.1,178.8c-0.2,0.1-0.5,0.1-0.8,0.2c-0.6,0.1-1.3,0.1-2,0.2
		c-1.7,0.1-2.5,0.8-2.5,2.1c0,0.6,0.2,1,0.6,1.4c0.4,0.4,1,0.6,1.8,0.6c0.8,0,1.4-0.1,1.9-0.4c0.5-0.3,0.8-0.6,1-1
		c0.2-0.4,0.4-0.7,0.4-1.1c0.1-0.3,0.1-0.6,0.1-0.7v-1.7C133.5,178.6,133.3,178.7,133.1,178.8z"/>
	<path class="st0" d="M139.9,175.1h-2v6.5c0,0.7,0.2,1.2,0.5,1.4c0.3,0.2,0.8,0.3,1.5,0.2v0.6c-0.4,0-0.7,0-1,0
		c-0.3,0-0.6-0.1-0.9-0.3c-0.3-0.1-0.5-0.4-0.6-0.7c-0.1-0.3-0.2-0.7-0.2-1.2v-6.5h-1.7v-0.6h1.7v-2.9h0.7v2.9h2V175.1z"/>
	<path class="st0" d="M141.3,172.7v-1.9h0.7v1.9H141.3z M141.3,183.7v-9.2h0.7v9.2H141.3z"/>
	<path class="st0" d="M144.8,175.7c0.7-0.9,1.8-1.4,3.1-1.4c1.4,0,2.4,0.5,3.1,1.4c0.7,0.9,1.1,2.1,1.1,3.4c0,1.3-0.4,2.5-1.1,3.4
		c-0.7,0.9-1.8,1.4-3.1,1.4c-1.4,0-2.4-0.5-3.1-1.4c-0.7-0.9-1.1-2.1-1.1-3.4C143.7,177.7,144.1,176.6,144.8,175.7z M145.4,182
		c0.6,0.8,1.5,1.3,2.6,1.3c1.2,0,2.1-0.5,2.7-1.3c0.6-0.8,0.9-1.8,0.9-2.9c0-1.2-0.3-2.1-0.9-3c-0.6-0.8-1.5-1.3-2.7-1.3
		c-1.2,0-2,0.5-2.6,1.3c-0.6,0.8-0.9,1.8-0.9,3C144.4,180.2,144.7,181.2,145.4,182z"/>
	<path class="st0" d="M153.8,174.5h0.7v2h0c0.3-0.7,0.7-1.3,1.3-1.6c0.6-0.4,1.3-0.6,2-0.6c0.8,0,1.5,0.1,1.9,0.4
		c0.5,0.3,0.8,0.6,1,1c0.2,0.4,0.3,0.8,0.4,1.2c0,0.4,0,0.8,0,1.1v5.7h-0.7v-5.8c0-0.3,0-0.6,0-0.9c0-0.3-0.2-0.7-0.3-1
		c-0.2-0.3-0.4-0.6-0.8-0.8c-0.4-0.2-0.9-0.3-1.5-0.3c-1,0-1.8,0.4-2.4,1.1c-0.6,0.7-0.9,1.6-0.9,2.8v5h-0.7V174.5z"/>
	<path class="st0" d="M168.3,170.9h0.7v5.6h0c0.3-0.7,0.8-1.3,1.4-1.6c0.6-0.4,1.3-0.5,2.1-0.5c1.4,0,2.4,0.5,3,1.3
		c0.6,0.9,1,2,1,3.3c0,1.1-0.2,2-0.4,2.6c-0.3,0.7-0.7,1.2-1.1,1.5c-0.4,0.4-0.9,0.6-1.3,0.7c-0.5,0.1-0.9,0.2-1.2,0.2
		c-0.6,0-1.1-0.1-1.5-0.3c-0.4-0.2-0.8-0.4-1.1-0.7c-0.5-0.6-0.8-1-0.9-1.3h0v2.1h-0.7V170.9z M174.1,182.9c0.4-0.3,0.8-0.6,1-1
		c0.5-0.9,0.7-1.9,0.7-3c0-1.1-0.3-2-0.8-2.8c-0.5-0.8-1.4-1.2-2.5-1.2c-1.2,0-2.1,0.4-2.7,1.1c-0.6,0.7-0.9,1.7-0.9,2.9
		c0,1.2,0.3,2.2,0.8,3.1c0.5,0.9,1.4,1.4,2.7,1.4C173.2,183.3,173.7,183.2,174.1,182.9z"/>
	<path class="st0" d="M178.8,176.5L178.8,176.5c0.3-0.6,0.7-1.1,1.4-1.5c0.6-0.4,1.4-0.6,2.2-0.6v0.7c-0.4-0.1-0.8,0-1.2,0.1
		c-0.5,0.1-0.9,0.4-1.3,0.8c-0.3,0.3-0.6,0.7-0.7,1.1c-0.2,0.4-0.3,0.9-0.3,1.6v5h-0.7v-9.2h0.7V176.5z"/>
	<path class="st0" d="M183.8,175.7c0.7-0.9,1.8-1.4,3.1-1.4c1.4,0,2.4,0.5,3.1,1.4c0.7,0.9,1.1,2.1,1.1,3.4c0,1.3-0.4,2.5-1.1,3.4
		c-0.7,0.9-1.8,1.4-3.1,1.4c-1.4,0-2.4-0.5-3.1-1.4c-0.7-0.9-1.1-2.1-1.1-3.4C182.7,177.7,183.1,176.6,183.8,175.7z M184.3,182
		c0.6,0.8,1.5,1.3,2.6,1.3c1.2,0,2.1-0.5,2.7-1.3c0.6-0.8,0.9-1.8,0.9-2.9c0-1.2-0.3-2.1-0.9-3c-0.6-0.8-1.5-1.3-2.7-1.3
		c-1.2,0-2,0.5-2.6,1.3c-0.6,0.8-0.9,1.8-0.9,3C183.4,180.2,183.7,181.2,184.3,182z"/>
	<path class="st0" d="M199.6,182c0,0.3,0,0.5,0.1,0.8c0.1,0.2,0.2,0.4,0.5,0.4c0.1,0,0.3,0,0.5-0.1v0.6c-0.2,0-0.4,0.1-0.6,0.1
		c-0.5,0-0.9-0.1-1-0.4c-0.2-0.2-0.2-0.6-0.2-0.9v-0.5h0c-0.2,0.6-0.6,1-1.2,1.4c-0.6,0.4-1.3,0.6-2.2,0.6c-0.9,0-1.6-0.2-2.2-0.6
		c-0.6-0.4-0.9-1.1-0.9-2c0-0.5,0.1-1,0.3-1.4c0.2-0.3,0.5-0.6,0.8-0.8c0.3-0.2,0.7-0.3,1.1-0.4c0.2,0,0.4-0.1,0.6-0.1
		c0.2,0,0.4,0,0.6,0c1.5-0.1,2.4-0.2,2.7-0.5c0.2-0.1,0.3-0.3,0.4-0.6c0-0.2,0.1-0.5,0.1-0.9c0-0.1,0-0.3-0.1-0.5
		c-0.1-0.2-0.2-0.4-0.4-0.6c-0.2-0.2-0.4-0.4-0.8-0.5c-0.3-0.1-0.8-0.2-1.3-0.2c-1.7,0-2.7,0.8-2.8,2.5h-0.7c0.1-2,1.3-3.1,3.5-3.1
		c0.8,0,1.6,0.1,2.2,0.5c0.7,0.4,1,1,1,1.9V182z M198.4,178.8c-0.2,0.1-0.5,0.1-0.8,0.2c-0.6,0.1-1.3,0.1-2,0.2
		c-1.7,0.1-2.5,0.8-2.5,2.1c0,0.6,0.2,1,0.6,1.4c0.4,0.4,1,0.6,1.8,0.6c0.8,0,1.4-0.1,1.9-0.4c0.5-0.3,0.8-0.6,1-1
		c0.2-0.4,0.4-0.7,0.4-1.1c0.1-0.3,0.1-0.6,0.1-0.7v-1.7C198.8,178.6,198.6,178.7,198.4,178.8z"/>
	<path class="st0" d="M208.9,181.7L208.9,181.7c-0.8,1.5-1.9,2.2-3.6,2.2c-1.4,0-2.4-0.5-3-1.5c-0.7-0.9-1-2-1-3.4
		c0-1.4,0.3-2.6,1-3.5c0.7-0.9,1.7-1.4,3.1-1.4c0.8,0,1.5,0.2,2.1,0.6c0.3,0.2,0.6,0.4,0.8,0.7c0.2,0.3,0.4,0.6,0.5,1h0v-5.7h0.7
		v12.8h-0.7V181.7z M208.1,182c0.6-0.8,0.8-1.8,0.8-2.9c0-1.1-0.3-2.1-0.8-2.9c-0.6-0.8-1.4-1.3-2.6-1.3c-1.2,0-2.1,0.5-2.6,1.3
		c-0.6,0.8-0.8,1.8-0.8,3c0,1.1,0.3,2.1,0.8,2.9c0.6,0.8,1.4,1.3,2.6,1.3C206.7,183.3,207.5,182.9,208.1,182z"/>
	<path class="st0" d="M218.8,177.3c-0.1-0.8-0.4-1.4-1-1.9c-0.6-0.4-1.3-0.6-2.2-0.6c-1.2,0-2,0.5-2.6,1.3c-0.6,0.8-0.9,1.8-0.9,2.9
		c0,1.3,0.3,2.3,0.9,3.1c0.6,0.8,1.5,1.2,2.7,1.2c0.9,0,1.6-0.3,2.2-0.8c0.6-0.5,0.9-1.2,1-2.1h0.7c-0.2,1.1-0.6,2-1.3,2.6
		c-0.7,0.6-1.6,0.9-2.6,0.9c-1.5,0-2.6-0.5-3.2-1.5c-0.7-1-1-2.1-1-3.4c0-1.3,0.4-2.4,1.1-3.3c0.7-0.9,1.8-1.4,3.2-1.4
		c1,0,1.9,0.2,2.6,0.7c0.7,0.5,1.1,1.3,1.2,2.3H218.8z"/>
	<path class="st0" d="M227.9,182c0,0.3,0,0.5,0.1,0.8c0.1,0.2,0.2,0.4,0.5,0.4c0.1,0,0.3,0,0.5-0.1v0.6c-0.2,0-0.4,0.1-0.6,0.1
		c-0.5,0-0.9-0.1-1-0.4c-0.2-0.2-0.2-0.6-0.2-0.9v-0.5h0c-0.2,0.6-0.6,1-1.2,1.4c-0.6,0.4-1.3,0.6-2.2,0.6c-0.9,0-1.6-0.2-2.2-0.6
		c-0.6-0.4-0.9-1.1-0.9-2c0-0.5,0.1-1,0.3-1.4c0.2-0.3,0.5-0.6,0.8-0.8c0.3-0.2,0.7-0.3,1.1-0.4c0.2,0,0.4-0.1,0.6-0.1
		c0.2,0,0.4,0,0.6,0c1.5-0.1,2.4-0.2,2.7-0.5c0.2-0.1,0.3-0.3,0.4-0.6c0-0.2,0.1-0.5,0.1-0.9c0-0.1,0-0.3-0.1-0.5
		c-0.1-0.2-0.2-0.4-0.4-0.6c-0.2-0.2-0.4-0.4-0.8-0.5c-0.3-0.1-0.8-0.2-1.3-0.2c-1.7,0-2.7,0.8-2.8,2.5h-0.7c0.1-2,1.3-3.1,3.5-3.1
		c0.8,0,1.6,0.1,2.2,0.5c0.7,0.4,1,1,1,1.9V182z M226.7,178.8c-0.2,0.1-0.5,0.1-0.8,0.2c-0.6,0.1-1.3,0.1-2,0.2
		c-1.7,0.1-2.5,0.8-2.5,2.1c0,0.6,0.2,1,0.6,1.4c0.4,0.4,1,0.6,1.8,0.6c0.8,0,1.4-0.1,1.9-0.4c0.5-0.3,0.8-0.6,1-1
		c0.2-0.4,0.4-0.7,0.4-1.1c0.1-0.3,0.1-0.6,0.1-0.7v-1.7C227.1,178.6,226.9,178.7,226.7,178.8z"/>
	<path class="st0" d="M230.5,180.6c0.1,0.8,0.4,1.5,0.9,2c0.6,0.5,1.3,0.7,2.1,0.7c0.3,0,0.6,0,1-0.1c0.3,0,0.7-0.1,0.9-0.3
		c0.3-0.1,0.5-0.4,0.7-0.6c0.2-0.3,0.3-0.6,0.3-0.9c0-0.4-0.1-0.7-0.2-1c-0.2-0.3-0.4-0.4-0.7-0.6c-0.3-0.1-0.6-0.3-1-0.3
		c-0.4-0.1-0.8-0.2-1.2-0.2c-0.4-0.1-0.8-0.2-1.2-0.3c-0.4-0.1-0.7-0.2-1-0.4c-0.3-0.2-0.6-0.4-0.7-0.7c-0.2-0.3-0.3-0.7-0.3-1.2
		s0.1-0.9,0.3-1.2c0.2-0.3,0.5-0.5,0.8-0.7c0.7-0.3,1.4-0.5,2.2-0.5c1,0,1.8,0.2,2.5,0.7c0.6,0.5,0.9,1.2,1,2.3h-0.7
		c0-0.8-0.3-1.4-0.8-1.8c-0.5-0.4-1.2-0.5-2-0.5c-0.7,0-1.3,0.1-1.8,0.4c-0.3,0.1-0.5,0.3-0.6,0.5c-0.2,0.2-0.3,0.5-0.3,0.9
		c0,0.4,0.1,0.7,0.3,0.9c0.2,0.2,0.4,0.4,0.7,0.6c0.1,0.1,0.3,0.1,0.5,0.2c0.2,0.1,0.3,0.1,0.5,0.2c0.2,0,0.4,0.1,0.6,0.1
		c0.2,0,0.4,0.1,0.5,0.1c0.9,0.1,1.7,0.4,2.3,0.8c0.3,0.2,0.5,0.4,0.7,0.8c0.2,0.3,0.2,0.7,0.2,1.2c0,0.5-0.1,0.9-0.3,1.2
		c-0.2,0.3-0.5,0.6-0.9,0.8c-0.3,0.2-0.7,0.3-1.2,0.4c-0.4,0.1-0.9,0.1-1.3,0.1c-1.1,0-1.9-0.3-2.6-0.9c-0.7-0.5-1.1-1.4-1.1-2.4
		H230.5z"/>
	<path class="st0" d="M242.2,175.1h-2v6.5c0,0.7,0.2,1.2,0.5,1.4c0.3,0.2,0.8,0.3,1.5,0.2v0.6c-0.4,0-0.7,0-1,0
		c-0.3,0-0.6-0.1-0.9-0.3c-0.3-0.1-0.4-0.4-0.6-0.7c-0.1-0.3-0.2-0.7-0.2-1.2v-6.5h-1.7v-0.6h1.7v-2.9h0.7v2.9h2V175.1z"/>
	<path class="st0" d="M243.6,172.7v-1.9h0.7v1.9H243.6z M243.6,183.7v-9.2h0.7v9.2H243.6z"/>
	<path class="st0" d="M246.4,174.5h0.7v2h0c0.3-0.7,0.7-1.3,1.3-1.6c0.6-0.4,1.3-0.6,2-0.6c0.8,0,1.5,0.1,1.9,0.4
		c0.5,0.3,0.8,0.6,1,1c0.2,0.4,0.3,0.8,0.4,1.2c0,0.4,0,0.8,0,1.1v5.7h-0.7v-5.8c0-0.3,0-0.6,0-0.9c0-0.3-0.2-0.7-0.3-1
		c-0.2-0.3-0.4-0.6-0.8-0.8c-0.4-0.2-0.9-0.3-1.5-0.3c-1,0-1.8,0.4-2.4,1.1c-0.6,0.7-0.9,1.6-0.9,2.8v5h-0.7V174.5z"/>
	<path class="st0" d="M263.4,174.5v8.8c0,0.2,0,0.5-0.1,0.9c0,0.4-0.2,0.9-0.4,1.4c-0.2,0.5-0.6,0.9-1.2,1.2
		c-0.6,0.3-1.3,0.5-2.3,0.5c-1,0-1.8-0.2-2.5-0.6c-0.7-0.4-1-1.2-1.1-2.2h0.7c0.1,0.8,0.4,1.4,1,1.7c0.5,0.4,1.2,0.5,2,0.5
		c0.8,0,1.4-0.2,1.9-0.4c0.5-0.3,0.8-0.6,1-1c0.2-0.4,0.3-0.8,0.4-1.1c0-0.3,0-0.6,0-0.7v-2.1h0c-0.7,1.4-1.8,2.1-3.3,2.1
		c-1.3,0-2.3-0.5-3-1.3c-0.7-0.9-1-1.9-1-3.2c0-1.3,0.3-2.3,1-3.2c0.7-0.9,1.7-1.3,2.9-1.3c0.7,0,1.4,0.2,2,0.5
		c0.6,0.4,1,0.9,1.3,1.6h0v-1.9H263.4z M256.9,176.1c-0.6,0.8-0.8,1.7-0.8,2.7c0,1.1,0.3,2,0.9,2.8c0.6,0.8,1.4,1.2,2.5,1.2
		c1.1,0,2-0.4,2.5-1.2c0.5-0.8,0.8-1.7,0.8-2.7c0-1.1-0.3-2-0.8-2.8s-1.4-1.2-2.5-1.2C258.2,174.9,257.4,175.3,256.9,176.1z"/>
	<path class="st0" d="M270.8,180.6c0.1,0.8,0.4,1.5,0.9,2c0.6,0.5,1.3,0.7,2.1,0.7c0.3,0,0.6,0,1-0.1c0.3,0,0.7-0.1,0.9-0.3
		c0.3-0.1,0.5-0.4,0.7-0.6c0.2-0.3,0.3-0.6,0.3-0.9c0-0.4-0.1-0.7-0.2-1c-0.2-0.3-0.4-0.4-0.7-0.6c-0.3-0.1-0.6-0.3-1-0.3
		c-0.4-0.1-0.8-0.2-1.2-0.2c-0.4-0.1-0.8-0.2-1.2-0.3c-0.4-0.1-0.7-0.2-1-0.4c-0.3-0.2-0.5-0.4-0.7-0.7c-0.2-0.3-0.3-0.7-0.3-1.2
		s0.1-0.9,0.3-1.2c0.2-0.3,0.5-0.5,0.8-0.7c0.7-0.3,1.4-0.5,2.2-0.5c1,0,1.8,0.2,2.5,0.7c0.6,0.5,0.9,1.2,1,2.3h-0.7
		c0-0.8-0.3-1.4-0.8-1.8c-0.5-0.4-1.2-0.5-2-0.5c-0.7,0-1.3,0.1-1.8,0.4c-0.3,0.1-0.5,0.3-0.6,0.5c-0.2,0.2-0.3,0.5-0.3,0.9
		c0,0.4,0.1,0.7,0.3,0.9c0.2,0.2,0.4,0.4,0.7,0.6c0.1,0.1,0.3,0.1,0.5,0.2c0.2,0.1,0.3,0.1,0.5,0.2c0.2,0,0.4,0.1,0.6,0.1
		c0.2,0,0.4,0.1,0.5,0.1c0.9,0.1,1.7,0.4,2.3,0.8c0.3,0.2,0.5,0.4,0.7,0.8c0.2,0.3,0.2,0.7,0.2,1.2c0,0.5-0.1,0.9-0.3,1.2
		c-0.2,0.3-0.5,0.6-0.9,0.8c-0.3,0.2-0.7,0.3-1.2,0.4c-0.4,0.1-0.9,0.1-1.3,0.1c-1.1,0-1.9-0.3-2.6-0.9c-0.7-0.5-1.1-1.4-1.1-2.4
		H270.8z"/>
	<path class="st0" d="M278,174.5h0.8l3.4,8.4l3.2-8.4h0.8l-4,10.2c-0.2,0.4-0.3,0.8-0.5,1.2c-0.2,0.3-0.4,0.6-0.6,0.7
		c-0.4,0.3-1.2,0.4-2.2,0.4v-0.6c0.5,0,0.9,0,1.2-0.1c0.3-0.1,0.5-0.2,0.8-0.5c0.2-0.3,0.6-1,1-2.2L278,174.5z"/>
	<path class="st0" d="M287.4,180.6c0.1,0.8,0.4,1.5,0.9,2c0.6,0.5,1.3,0.7,2.1,0.7c0.3,0,0.6,0,1-0.1c0.3,0,0.7-0.1,0.9-0.3
		c0.3-0.1,0.5-0.4,0.7-0.6c0.2-0.3,0.3-0.6,0.3-0.9c0-0.4-0.1-0.7-0.2-1c-0.2-0.3-0.4-0.4-0.7-0.6c-0.3-0.1-0.6-0.3-1-0.3
		c-0.4-0.1-0.8-0.2-1.2-0.2c-0.4-0.1-0.8-0.2-1.1-0.3c-0.4-0.1-0.7-0.2-1-0.4c-0.3-0.2-0.6-0.4-0.7-0.7c-0.2-0.3-0.3-0.7-0.3-1.2
		s0.1-0.9,0.3-1.2c0.2-0.3,0.5-0.5,0.8-0.7c0.7-0.3,1.4-0.5,2.2-0.5c1,0,1.8,0.2,2.5,0.7c0.6,0.5,0.9,1.2,1,2.3h-0.7
		c0-0.8-0.3-1.4-0.8-1.8c-0.5-0.4-1.2-0.5-2-0.5c-0.7,0-1.3,0.1-1.8,0.4c-0.3,0.1-0.5,0.3-0.6,0.5c-0.2,0.2-0.3,0.5-0.3,0.9
		c0,0.4,0.1,0.7,0.3,0.9c0.2,0.2,0.4,0.4,0.7,0.6c0.1,0.1,0.3,0.1,0.5,0.2c0.2,0.1,0.3,0.1,0.5,0.2c0.2,0,0.4,0.1,0.6,0.1
		c0.2,0,0.4,0.1,0.5,0.1c0.9,0.1,1.7,0.4,2.3,0.8c0.3,0.2,0.5,0.4,0.7,0.8c0.2,0.3,0.2,0.7,0.2,1.2c0,0.5-0.1,0.9-0.3,1.2
		c-0.2,0.3-0.5,0.6-0.9,0.8c-0.3,0.2-0.7,0.3-1.2,0.4c-0.4,0.1-0.9,0.1-1.3,0.1c-1.1,0-1.9-0.3-2.6-0.9c-0.7-0.5-1.1-1.4-1.1-2.4
		H287.4z"/>
	<path class="st0" d="M299.1,175.1h-2v6.5c0,0.7,0.2,1.2,0.5,1.4c0.3,0.2,0.8,0.3,1.5,0.2v0.6c-0.4,0-0.7,0-1,0
		c-0.3,0-0.6-0.1-0.9-0.3c-0.3-0.1-0.5-0.4-0.6-0.7c-0.1-0.3-0.2-0.7-0.2-1.2v-6.5h-1.7v-0.6h1.7v-2.9h0.7v2.9h2V175.1z"/>
	<path class="st0" d="M300.6,179.2c0,1.1,0.3,2.1,0.9,2.9c0.6,0.8,1.4,1.3,2.5,1.3c1.8,0,2.9-0.9,3.3-2.7h0.7
		c-0.4,2.2-1.7,3.3-4,3.3c-1.4,0-2.4-0.5-3.1-1.4c-0.7-0.9-1-2-1-3.3c0-1.3,0.3-2.5,1-3.5c0.7-1,1.7-1.5,3.1-1.5
		c1.5,0,2.5,0.5,3.2,1.5c0.7,0.9,1,2.1,0.9,3.5H300.6z M307.4,178.6c0-1-0.3-1.9-0.9-2.6c-0.6-0.7-1.4-1.1-2.5-1.1
		c-1,0-1.8,0.4-2.4,1.2c-0.6,0.8-0.9,1.6-1,2.6H307.4z"/>
	<path class="st0" d="M309.7,174.5h0.7v1.9h0c0.2-0.6,0.5-1.1,1-1.5c0.5-0.4,1.2-0.6,1.9-0.6c0.4,0,0.8,0.1,1.2,0.2
		c0.3,0.1,0.6,0.3,0.8,0.4c0.4,0.4,0.7,0.8,0.8,1.4h0c0.5-1.3,1.5-1.9,2.9-2c0.9,0,1.6,0.2,2.1,0.7c0.5,0.5,0.8,1.3,0.8,2.4v6.3
		h-0.7v-6.3c0-0.6-0.1-1.1-0.3-1.4c-0.2-0.3-0.4-0.6-0.6-0.7c-0.2-0.2-0.5-0.3-0.7-0.3c-0.2,0-0.4-0.1-0.6-0.1
		c-0.8,0-1.5,0.3-2.1,0.9c-0.5,0.6-0.8,1.4-0.8,2.5v5.5h-0.7v-6.3c0-0.6-0.1-1.1-0.3-1.4c-0.2-0.3-0.4-0.6-0.6-0.7
		c-0.2-0.2-0.5-0.3-0.7-0.3c-0.2,0-0.4-0.1-0.6-0.1c-0.7,0-1.3,0.3-1.9,0.8c-0.6,0.5-1,1.4-1,2.6v5.5h-0.7V174.5z"/>
</g>
<g>
	<path class="st0" d="M68.7,128.3H90c3.7,0,6.8,1,9.2,2.9c2.5,1.9,4.3,4.2,5.4,6.9c1.2,2.9,1.3,5.5,0.4,7.7c-0.9,2.2-3.2,3.6-7,4.2
		c3.1,1.9,8.1,7.2,14.8,15.7h-12.2c-2.1-2.7-4.5-5.7-7.2-8.9c-2.7-3.2-4.5-5.1-5.4-5.6s-1.9-0.8-2.8-0.8h-0.6l3,15.2H75.9
		L68.7,128.3z M83.2,143.5h2.2c3.7,0,6-0.2,6.9-0.5c0.9-0.3,1.5-0.9,1.7-1.7c0.2-0.8,0.1-1.6-0.2-2.3c-0.4-1-1-1.7-1.9-2.2
		s-2.3-0.8-4.4-0.8h-5.9L83.2,143.5z"/>
	<path class="st0" d="M140,128.3l1.5,8h-19l1.2,6H142l1.4,7.6h-18.3l1.4,7.3h20.6l1.6,8.5h-32.2l-7.2-37.5H140z"/>
	<path class="st0" d="M147.2,128.3h17c3.2,0,5.8,0.4,7.7,1.1c1.9,0.8,3.6,1.9,5.1,3.4c1.5,1.5,2.6,3.3,3.5,5.5
		c1.1,2.8,1.4,5.3,0.8,7.5c-0.6,2.2-1.9,3.8-3.8,4.7c-1.9,1-4.9,1.4-9,1.4h-5.1l2.7,13.8h-11.7L147.2,128.3z M161.9,144.5h3.9
		c1.8,0,3.1-0.5,3.8-1.6c0.7-1.1,0.8-2.4,0.2-3.8c-0.9-2.2-2.6-3.4-5-3.4h-4.5L161.9,144.5z"/>
	<path class="st0" d="M219.2,156.6l1.8,9.1h-30.2l-7.2-37.5h11.7l5.4,28.3H219.2z"/>
	<path class="st0" d="M230.7,128.3l7.1,37.5h-11.7l-7.1-37.5H230.7z"/>
	<path class="st0" d="M275.1,140.6l-10.1,1.2l-0.1-0.2c-0.7-1.8-1.8-3.2-3.3-4.1c-1.4-0.9-2.8-1.3-4.1-1.3c-1.7,0-3.1,0.6-4.2,1.9
		c-1.1,1.3-1.6,3.2-1.6,5.7c0.1,2.6,0.6,5.1,1.6,7.5c0.8,1.9,1.9,3.4,3.4,4.7c1.5,1.3,3.2,1.9,5.2,1.9c1.8,0,3-0.6,3.8-1.7
		c0.8-1.1,1.1-2.9,1.1-5.2l11.5,1.7c0.4,3.9-0.4,7.1-2.6,9.8c-2.2,2.6-5.8,4-11,4c-5.4,0-10.1-1.4-14.1-4.3c-4-2.9-7-6.7-8.9-11.5
		c-1.5-3.7-2.1-7.3-1.9-11c0.2-3.7,1.5-6.6,3.9-8.7c2.4-2.1,5.9-3.2,10.4-3.2c4.7,0,8.9,1.2,12.6,3.6
		C270.3,133.6,273.1,136.7,275.1,140.6z"/>
	<path class="st0" d="M320.3,165.7H309l-3-6.1h-12.7l-0.4,6.1h-11.9l6-37.5h12.3L320.3,165.7z M302,151.7l-7-13.8h-0.1l-1.1,13.8
		H302z"/>
</g>
<path class="st0" d="M129.6,76.9c-1.9-10.3-6.4-19.6-12.6-28c-12.6-17-28.4-29.2-49.7-33.3c-14.6-2.8-27.8,3.2-34.9,16.4
	c-7.2,13.2-8,27.1-5.5,41.5c1,5.7,3.5,10.7,5.8,16.3c-10.5,4.6-15.6,12.5-13.2,23.7c2.1,9.9,9.7,14,19.3,15.1l20.2,37l0.9,0.4
	l1.2-0.1l-9.3-43.4c2.2-2.8,3.8-5.4,4.9-8.6c0.8,0,1.1-0.1,1.2,0c0.8,0.3,1.7,0.5,2.5,0.9c13.4,5.7,27.2,6.5,41.2,2.9
	c8-2.1,15.3-5.8,20.9-11.9C130.2,97.7,131.6,87.6,129.6,76.9z M38.4,114.4c-2.9,0-5.3-2.4-5.3-5.3c0-2.9,2.4-5.3,5.3-5.3
	s5.3,2.4,5.3,5.3C43.7,112.1,41.4,114.4,38.4,114.4z M52,92.8c-3.8-3.9-6.9-11.2-6.9-11.2s4.4,6.1,8.7,10.5c4.4,4.6,9.4,8,9.4,8
	S57,98,52,92.8z M97.8,100.2c-9.8-1.4-18.4-5.7-26.1-11.7c-10.7-8.4-19.3-18.4-24-31.4c-1.4-3.7-2.3-7.5-2.1-11.2c0-1.2,0-2.1,0-3
	c-0.2-8.4,6-12.9,13.2-13.5c7-0.6,13.6,1.5,19.6,4.6C95,42.7,107.3,55.5,114,73.4c1.4,3.7,1.7,7.6,2,11.6
	C116.6,94.7,109.1,101.7,97.8,100.2z M63.7,72.6c2.9,3.2,5.8,6.4,9.1,10c5.7-5.8,11.6-11.1,16.8-17.1c-3.4-3.4-6.5-6.4-9-8.8
	C74.8,62.1,69,67.6,63.7,72.6z"/>
</svg>
