<?xml version="1.0" encoding="utf-8"?>
<!-- Generator: Adobe Illustrator 22.0.1, SVG Export Plug-In . SVG Version: 6.00 Build 0)  -->
<svg version="1.1" id="Layer_1" xmlns="http://www.w3.org/2000/svg" xmlns:xlink="http://www.w3.org/1999/xlink" x="0px" y="0px"
	 viewBox="0 0 409.3 288.5" style="enable-background:new 0 0 409.3 288.5;" xml:space="preserve">
<style type="text/css">
	.st0{fill:#283544;}
	.st1{fill:#D56B44;}
</style>
<g>
	<path class="st0" d="M122,227c0,0.3,0,0.5,0.1,0.8c0.1,0.2,0.2,0.4,0.5,0.4c0.1,0,0.3,0,0.5-0.1v0.6c-0.2,0-0.4,0.1-0.6,0.1
		c-0.5,0-0.9-0.1-1-0.4c-0.2-0.2-0.2-0.6-0.2-0.9v-0.5h0c-0.2,0.6-0.6,1-1.2,1.4c-0.6,0.4-1.3,0.6-2.2,0.6c-0.9,0-1.6-0.2-2.2-0.6
		c-0.6-0.4-0.9-1.1-0.9-2c0-0.5,0.1-1,0.3-1.4c0.2-0.3,0.5-0.6,0.8-0.8c0.3-0.2,0.7-0.3,1.1-0.4c0.2,0,0.4-0.1,0.6-0.1
		c0.2,0,0.4,0,0.6,0c1.5-0.1,2.4-0.2,2.7-0.5c0.2-0.1,0.3-0.3,0.4-0.6c0-0.2,0.1-0.5,0.1-0.9c0-0.1,0-0.3-0.1-0.5
		c-0.1-0.2-0.2-0.4-0.4-0.6c-0.2-0.2-0.4-0.4-0.8-0.5c-0.3-0.1-0.8-0.2-1.3-0.2c-1.7,0-2.7,0.8-2.8,2.5h-0.7c0.1-2,1.3-3.1,3.5-3.1
		c0.8,0,1.6,0.1,2.2,0.5c0.7,0.4,1,1,1,1.9V227z M120.7,223.8c-0.2,0.1-0.5,0.1-0.8,0.2c-0.6,0.1-1.3,0.1-2,0.2
		c-1.7,0.1-2.5,0.8-2.5,2.1c0,0.6,0.2,1,0.6,1.4c0.4,0.4,1,0.6,1.8,0.6c0.8,0,1.4-0.1,1.9-0.4c0.5-0.3,0.8-0.6,1-1
		c0.2-0.4,0.4-0.7,0.4-1.1c0.1-0.3,0.1-0.6,0.1-0.7v-1.7C121.1,223.6,121,223.7,120.7,223.8z"/>
	<path class="st0" d="M131.5,228.7h-0.7v-2h0c-0.3,0.7-0.7,1.2-1.3,1.6c-0.6,0.4-1.3,0.6-2,0.6c-0.8,0-1.4-0.2-1.9-0.5
		c-0.5-0.3-0.8-0.6-1-1c-0.2-0.4-0.3-0.8-0.4-1.2c0-0.4-0.1-0.7-0.1-1v-5.7h0.7v5.8c0,0.2,0,0.5,0.1,0.9c0,0.3,0.2,0.7,0.3,1
		c0.2,0.3,0.4,0.6,0.8,0.8c0.3,0.2,0.8,0.4,1.4,0.4c1.1,0,1.9-0.4,2.4-1.1c0.6-0.7,0.9-1.6,0.9-2.8v-5h0.7V228.7z"/>
	<path class="st0" d="M136.9,220.1h-2v6.5c0,0.7,0.2,1.2,0.5,1.4c0.3,0.2,0.8,0.3,1.5,0.2v0.6c-0.4,0-0.7,0-1,0
		c-0.3,0-0.6-0.1-0.9-0.3c-0.3-0.1-0.4-0.4-0.6-0.7c-0.1-0.3-0.2-0.7-0.2-1.2v-6.5h-1.7v-0.6h1.7v-2.9h0.7v2.9h2V220.1z"/>
	<path class="st0" d="M138.8,220.7c0.7-0.9,1.8-1.4,3.1-1.4c1.4,0,2.4,0.5,3.1,1.4c0.7,0.9,1.1,2.1,1.1,3.4c0,1.3-0.4,2.5-1.1,3.4
		c-0.7,0.9-1.8,1.4-3.1,1.4c-1.4,0-2.4-0.5-3.1-1.4c-0.7-0.9-1.1-2.1-1.1-3.4C137.7,222.8,138.1,221.6,138.8,220.7z M139.3,227.1
		c0.6,0.8,1.5,1.3,2.6,1.3c1.2,0,2.1-0.5,2.7-1.3c0.6-0.8,0.9-1.8,0.9-2.9c0-1.2-0.3-2.1-0.9-3c-0.6-0.8-1.5-1.3-2.7-1.3
		c-1.2,0-2,0.5-2.6,1.3c-0.6,0.8-0.9,1.8-0.9,3C138.4,225.3,138.7,226.2,139.3,227.1z"/>
	<path class="st0" d="M147.8,219.5h0.7v1.9h0c0.2-0.6,0.5-1.1,1-1.5c0.5-0.4,1.2-0.6,1.9-0.6c0.4,0,0.8,0.1,1.2,0.2
		c0.3,0.1,0.6,0.3,0.8,0.4c0.4,0.4,0.7,0.8,0.8,1.4h0c0.5-1.3,1.5-1.9,2.9-2c0.9,0,1.6,0.2,2.1,0.7c0.5,0.5,0.8,1.3,0.8,2.4v6.3
		h-0.7v-6.3c0-0.6-0.1-1.1-0.3-1.4c-0.2-0.3-0.4-0.6-0.6-0.7c-0.2-0.2-0.5-0.3-0.7-0.3c-0.2,0-0.4-0.1-0.6-0.1
		c-0.8,0-1.5,0.3-2.1,0.9c-0.5,0.6-0.8,1.4-0.8,2.5v5.5h-0.7v-6.3c0-0.6-0.1-1.1-0.3-1.4c-0.2-0.3-0.4-0.6-0.6-0.7
		c-0.2-0.2-0.5-0.3-0.7-0.3c-0.2,0-0.4-0.1-0.6-0.1c-0.7,0-1.3,0.3-1.9,0.8c-0.6,0.5-1,1.4-1,2.6v5.5h-0.7V219.5z"/>
	<path class="st0" d="M168.9,227c0,0.3,0,0.5,0.1,0.8c0.1,0.2,0.2,0.4,0.5,0.4c0.1,0,0.3,0,0.5-0.1v0.6c-0.2,0-0.4,0.1-0.6,0.1
		c-0.5,0-0.9-0.1-1-0.4c-0.2-0.2-0.2-0.6-0.2-0.9v-0.5h0c-0.2,0.6-0.6,1-1.2,1.4c-0.6,0.4-1.3,0.6-2.2,0.6c-0.9,0-1.6-0.2-2.2-0.6
		c-0.6-0.4-0.9-1.1-0.9-2c0-0.5,0.1-1,0.3-1.4c0.2-0.3,0.5-0.6,0.8-0.8c0.3-0.2,0.7-0.3,1.1-0.4c0.2,0,0.4-0.1,0.6-0.1
		c0.2,0,0.4,0,0.6,0c1.5-0.1,2.4-0.2,2.7-0.5c0.2-0.1,0.3-0.3,0.4-0.6c0-0.2,0.1-0.5,0.1-0.9c0-0.1,0-0.3-0.1-0.5
		c-0.1-0.2-0.2-0.4-0.4-0.6c-0.2-0.2-0.4-0.4-0.8-0.5c-0.3-0.1-0.8-0.2-1.3-0.2c-1.7,0-2.7,0.8-2.8,2.5h-0.7c0.1-2,1.3-3.1,3.5-3.1
		c0.8,0,1.6,0.1,2.2,0.5c0.7,0.4,1,1,1,1.9V227z M167.7,223.8c-0.2,0.1-0.5,0.1-0.8,0.2c-0.6,0.1-1.3,0.1-2,0.2
		c-1.7,0.1-2.5,0.8-2.5,2.1c0,0.6,0.2,1,0.6,1.4c0.4,0.4,1,0.6,1.8,0.6c0.8,0,1.4-0.1,1.9-0.4c0.5-0.3,0.8-0.6,1-1
		c0.2-0.4,0.4-0.7,0.4-1.1c0.1-0.3,0.1-0.6,0.1-0.7v-1.7C168.1,223.6,167.9,223.7,167.7,223.8z"/>
	<path class="st0" d="M174.5,220.1h-2v6.5c0,0.7,0.2,1.2,0.5,1.4c0.3,0.2,0.8,0.3,1.5,0.2v0.6c-0.4,0-0.7,0-1,0
		c-0.3,0-0.6-0.1-0.9-0.3c-0.3-0.1-0.5-0.4-0.6-0.7c-0.1-0.3-0.2-0.7-0.2-1.2v-6.5h-1.7v-0.6h1.7v-2.9h0.7v2.9h2V220.1z"/>
	<path class="st0" d="M175.9,217.8v-1.9h0.7v1.9H175.9z M175.9,228.7v-9.2h0.7v9.2H175.9z"/>
	<path class="st0" d="M179.4,220.7c0.7-0.9,1.8-1.4,3.1-1.4c1.4,0,2.4,0.5,3.1,1.4c0.7,0.9,1.1,2.1,1.1,3.4c0,1.3-0.4,2.5-1.1,3.4
		c-0.7,0.9-1.8,1.4-3.1,1.4c-1.4,0-2.4-0.5-3.1-1.4c-0.7-0.9-1.1-2.1-1.1-3.4C178.3,222.8,178.7,221.6,179.4,220.7z M179.9,227.1
		c0.6,0.8,1.5,1.3,2.6,1.3c1.2,0,2.1-0.5,2.7-1.3c0.6-0.8,0.9-1.8,0.9-2.9c0-1.2-0.3-2.1-0.9-3c-0.6-0.8-1.5-1.3-2.7-1.3
		c-1.2,0-2,0.5-2.6,1.3c-0.6,0.8-0.9,1.8-0.9,3C179,225.3,179.3,226.2,179.9,227.1z"/>
	<path class="st0" d="M188.4,219.5h0.7v2h0c0.3-0.7,0.7-1.3,1.3-1.6c0.6-0.4,1.3-0.6,2-0.6c0.8,0,1.5,0.1,1.9,0.4
		c0.5,0.3,0.8,0.6,1,1c0.2,0.4,0.3,0.8,0.4,1.2c0,0.4,0,0.8,0,1.1v5.7h-0.7v-5.8c0-0.3,0-0.6,0-0.9c0-0.3-0.2-0.7-0.3-1
		c-0.2-0.3-0.4-0.6-0.8-0.8c-0.4-0.2-0.9-0.3-1.5-0.3c-1,0-1.8,0.4-2.4,1.1c-0.6,0.7-0.9,1.6-0.9,2.8v5h-0.7V219.5z"/>
	<path class="st0" d="M202.9,215.9h0.7v5.6h0c0.3-0.7,0.8-1.3,1.4-1.6c0.6-0.4,1.3-0.5,2.1-0.5c1.4,0,2.4,0.5,3,1.3
		c0.6,0.9,1,2,1,3.3c0,1.1-0.2,2-0.4,2.6c-0.3,0.7-0.7,1.2-1.1,1.5c-0.4,0.4-0.9,0.6-1.3,0.7c-0.5,0.1-0.9,0.2-1.2,0.2
		c-0.6,0-1.1-0.1-1.5-0.3c-0.4-0.2-0.8-0.4-1.1-0.7c-0.5-0.6-0.8-1-0.9-1.3h0v2.1h-0.7V215.9z M208.7,227.9c0.4-0.3,0.8-0.6,1-1
		c0.5-0.9,0.7-1.9,0.7-3c0-1.1-0.3-2-0.8-2.8c-0.5-0.8-1.4-1.2-2.5-1.2c-1.2,0-2.1,0.4-2.7,1.1c-0.6,0.7-0.9,1.7-0.9,2.9
		c0,1.2,0.3,2.2,0.8,3.1c0.5,0.9,1.4,1.4,2.7,1.4C207.7,228.4,208.3,228.2,208.7,227.9z"/>
	<path class="st0" d="M213.4,221.5L213.4,221.5c0.3-0.6,0.7-1.1,1.4-1.5c0.6-0.4,1.4-0.6,2.2-0.6v0.7c-0.4-0.1-0.8,0-1.2,0.1
		c-0.5,0.1-0.9,0.4-1.3,0.8c-0.3,0.3-0.6,0.7-0.7,1.1c-0.2,0.4-0.3,0.9-0.3,1.6v5h-0.7v-9.2h0.7V221.5z"/>
	<path class="st0" d="M218.4,220.7c0.7-0.9,1.8-1.4,3.1-1.4c1.4,0,2.4,0.5,3.1,1.4c0.7,0.9,1.1,2.1,1.1,3.4c0,1.3-0.4,2.5-1.1,3.4
		c-0.7,0.9-1.8,1.4-3.1,1.4c-1.4,0-2.4-0.5-3.1-1.4c-0.7-0.9-1.1-2.1-1.1-3.4C217.3,222.8,217.7,221.6,218.4,220.7z M218.9,227.1
		c0.6,0.8,1.5,1.3,2.6,1.3c1.2,0,2.1-0.5,2.7-1.3c0.6-0.8,0.9-1.8,0.9-2.9c0-1.2-0.3-2.1-0.9-3c-0.6-0.8-1.5-1.3-2.7-1.3
		c-1.2,0-2,0.5-2.6,1.3c-0.6,0.8-0.9,1.8-0.9,3C218,225.3,218.3,226.2,218.9,227.1z"/>
	<path class="st0" d="M234.2,227c0,0.3,0,0.5,0.1,0.8c0.1,0.2,0.2,0.4,0.5,0.4c0.1,0,0.3,0,0.5-0.1v0.6c-0.2,0-0.4,0.1-0.6,0.1
		c-0.5,0-0.9-0.1-1-0.4c-0.2-0.2-0.2-0.6-0.2-0.9v-0.5h0c-0.2,0.6-0.6,1-1.2,1.4c-0.6,0.4-1.3,0.6-2.2,0.6c-0.9,0-1.6-0.2-2.2-0.6
		c-0.6-0.4-0.9-1.1-0.9-2c0-0.5,0.1-1,0.3-1.4c0.2-0.3,0.5-0.6,0.8-0.8c0.3-0.2,0.7-0.3,1.1-0.4c0.2,0,0.4-0.1,0.6-0.1
		c0.2,0,0.4,0,0.6,0c1.5-0.1,2.4-0.2,2.7-0.5c0.2-0.1,0.3-0.3,0.4-0.6c0-0.2,0.1-0.5,0.1-0.9c0-0.1,0-0.3-0.1-0.5
		c-0.1-0.2-0.2-0.4-0.4-0.6c-0.2-0.2-0.4-0.4-0.8-0.5c-0.3-0.1-0.8-0.2-1.3-0.2c-1.7,0-2.7,0.8-2.8,2.5h-0.7c0.1-2,1.3-3.1,3.5-3.1
		c0.8,0,1.6,0.1,2.2,0.5c0.7,0.4,1,1,1,1.9V227z M233,223.8c-0.2,0.1-0.5,0.1-0.8,0.2c-0.6,0.1-1.3,0.1-2,0.2
		c-1.7,0.1-2.5,0.8-2.5,2.1c0,0.6,0.2,1,0.6,1.4c0.4,0.4,1,0.6,1.8,0.6c0.8,0,1.4-0.1,1.9-0.4c0.5-0.3,0.8-0.6,1-1
		c0.2-0.4,0.4-0.7,0.4-1.1c0.1-0.3,0.1-0.6,0.1-0.7v-1.7C233.4,223.6,233.2,223.7,233,223.8z"/>
	<path class="st0" d="M243.5,226.8L243.5,226.8c-0.8,1.5-1.9,2.2-3.6,2.2c-1.4,0-2.4-0.5-3-1.5c-0.7-0.9-1-2-1-3.4
		c0-1.4,0.3-2.6,1-3.5c0.7-0.9,1.7-1.4,3.1-1.4c0.8,0,1.5,0.2,2.1,0.6c0.3,0.2,0.6,0.4,0.8,0.7c0.2,0.3,0.4,0.6,0.5,1h0v-5.7h0.7
		v12.8h-0.7V226.8z M242.7,227c0.6-0.8,0.8-1.8,0.8-2.9c0-1.1-0.3-2.1-0.8-2.9c-0.6-0.8-1.4-1.3-2.6-1.3c-1.2,0-2.1,0.5-2.6,1.3
		c-0.6,0.8-0.8,1.8-0.8,3c0,1.1,0.3,2.1,0.8,2.9c0.6,0.8,1.4,1.3,2.6,1.3C241.3,228.3,242.1,227.9,242.7,227z"/>
	<path class="st0" d="M253.3,222.4c-0.1-0.8-0.4-1.4-1-1.9c-0.6-0.4-1.3-0.6-2.2-0.6c-1.2,0-2,0.5-2.6,1.3c-0.6,0.8-0.9,1.8-0.9,2.9
		c0,1.3,0.3,2.3,0.9,3.1c0.6,0.8,1.5,1.2,2.7,1.2c0.9,0,1.6-0.3,2.2-0.8c0.6-0.5,0.9-1.2,1-2.1h0.7c-0.2,1.1-0.6,2-1.3,2.6
		c-0.7,0.6-1.6,0.9-2.6,0.9c-1.5,0-2.6-0.5-3.2-1.5c-0.7-1-1-2.1-1-3.4c0-1.3,0.4-2.4,1.1-3.3c0.7-0.9,1.8-1.4,3.2-1.4
		c1,0,1.9,0.2,2.6,0.7c0.7,0.5,1.1,1.3,1.2,2.3H253.3z"/>
	<path class="st0" d="M262.5,227c0,0.3,0,0.5,0.1,0.8c0.1,0.2,0.2,0.4,0.5,0.4c0.1,0,0.3,0,0.5-0.1v0.6c-0.2,0-0.4,0.1-0.6,0.1
		c-0.5,0-0.9-0.1-1-0.4c-0.2-0.2-0.2-0.6-0.2-0.9v-0.5h0c-0.2,0.6-0.6,1-1.2,1.4c-0.6,0.4-1.3,0.6-2.2,0.6c-0.9,0-1.6-0.2-2.2-0.6
		c-0.6-0.4-0.9-1.1-0.9-2c0-0.5,0.1-1,0.3-1.4c0.2-0.3,0.5-0.6,0.8-0.8c0.3-0.2,0.7-0.3,1.1-0.4c0.2,0,0.4-0.1,0.6-0.1
		c0.2,0,0.4,0,0.6,0c1.5-0.1,2.4-0.2,2.7-0.5c0.2-0.1,0.3-0.3,0.4-0.6c0-0.2,0.1-0.5,0.1-0.9c0-0.1,0-0.3-0.1-0.5
		c-0.1-0.2-0.2-0.4-0.4-0.6c-0.2-0.2-0.4-0.4-0.8-0.5c-0.3-0.1-0.8-0.2-1.3-0.2c-1.7,0-2.7,0.8-2.8,2.5h-0.7c0.1-2,1.3-3.1,3.5-3.1
		c0.8,0,1.6,0.1,2.2,0.5c0.7,0.4,1,1,1,1.9V227z M261.3,223.8c-0.2,0.1-0.5,0.1-0.8,0.2c-0.6,0.1-1.3,0.1-2,0.2
		c-1.7,0.1-2.5,0.8-2.5,2.1c0,0.6,0.2,1,0.6,1.4c0.4,0.4,1,0.6,1.8,0.6c0.8,0,1.4-0.1,1.9-0.4c0.5-0.3,0.8-0.6,1-1
		c0.2-0.4,0.4-0.7,0.4-1.1c0.1-0.3,0.1-0.6,0.1-0.7v-1.7C261.7,223.6,261.5,223.7,261.3,223.8z"/>
	<path class="st0" d="M265,225.7c0.1,0.8,0.4,1.5,0.9,2c0.6,0.5,1.3,0.7,2.1,0.7c0.3,0,0.6,0,1-0.1c0.3,0,0.7-0.1,0.9-0.3
		c0.3-0.1,0.5-0.4,0.7-0.6c0.2-0.3,0.3-0.6,0.3-0.9c0-0.4-0.1-0.7-0.2-1c-0.2-0.3-0.4-0.4-0.7-0.6c-0.3-0.1-0.6-0.3-1-0.3
		c-0.4-0.1-0.8-0.2-1.2-0.2c-0.4-0.1-0.8-0.2-1.2-0.3c-0.4-0.1-0.7-0.2-1-0.4c-0.3-0.2-0.6-0.4-0.7-0.7c-0.2-0.3-0.3-0.7-0.3-1.2
		s0.1-0.9,0.3-1.2c0.2-0.3,0.5-0.5,0.8-0.7c0.7-0.3,1.4-0.5,2.2-0.5c1,0,1.8,0.2,2.5,0.7c0.6,0.5,0.9,1.2,1,2.3h-0.7
		c0-0.8-0.3-1.4-0.8-1.8c-0.5-0.4-1.2-0.5-2-0.5c-0.7,0-1.3,0.1-1.8,0.4c-0.3,0.1-0.5,0.3-0.6,0.5c-0.2,0.2-0.3,0.5-0.3,0.9
		c0,0.4,0.1,0.7,0.3,0.9c0.2,0.2,0.4,0.4,0.7,0.6c0.1,0.1,0.3,0.1,0.5,0.2c0.2,0.1,0.3,0.1,0.5,0.2c0.2,0,0.4,0.1,0.6,0.1
		c0.2,0,0.4,0.1,0.5,0.1c0.9,0.1,1.7,0.4,2.3,0.8c0.3,0.2,0.5,0.4,0.7,0.8c0.2,0.3,0.2,0.7,0.2,1.2c0,0.5-0.1,0.9-0.3,1.2
		c-0.2,0.3-0.5,0.6-0.9,0.8c-0.3,0.2-0.7,0.3-1.2,0.4c-0.4,0.1-0.9,0.1-1.3,0.1c-1.1,0-1.9-0.3-2.6-0.9c-0.7-0.5-1.1-1.4-1.1-2.4
		H265z"/>
	<path class="st0" d="M276.8,220.1h-2v6.5c0,0.7,0.2,1.2,0.5,1.4c0.3,0.2,0.8,0.3,1.5,0.2v0.6c-0.4,0-0.7,0-1,0
		c-0.3,0-0.6-0.1-0.9-0.3c-0.3-0.1-0.4-0.4-0.6-0.7c-0.1-0.3-0.2-0.7-0.2-1.2v-6.5h-1.7v-0.6h1.7v-2.9h0.7v2.9h2V220.1z"/>
	<path class="st0" d="M278.2,217.8v-1.9h0.7v1.9H278.2z M278.2,228.7v-9.2h0.7v9.2H278.2z"/>
	<path class="st0" d="M281,219.5h0.7v2h0c0.3-0.7,0.7-1.3,1.3-1.6c0.6-0.4,1.3-0.6,2-0.6c0.8,0,1.5,0.1,1.9,0.4c0.5,0.3,0.8,0.6,1,1
		c0.2,0.4,0.3,0.8,0.4,1.2c0,0.4,0,0.8,0,1.1v5.7h-0.7v-5.8c0-0.3,0-0.6,0-0.9c0-0.3-0.2-0.7-0.3-1c-0.2-0.3-0.4-0.6-0.8-0.8
		c-0.4-0.2-0.9-0.3-1.5-0.3c-1,0-1.8,0.4-2.4,1.1c-0.6,0.7-0.9,1.6-0.9,2.8v5H281V219.5z"/>
	<path class="st0" d="M298,219.5v8.8c0,0.2,0,0.5-0.1,0.9c0,0.4-0.2,0.9-0.4,1.4c-0.2,0.5-0.6,0.9-1.2,1.2c-0.6,0.3-1.3,0.5-2.3,0.5
		c-1,0-1.8-0.2-2.5-0.6c-0.7-0.4-1-1.2-1.1-2.2h0.7c0.1,0.8,0.4,1.4,1,1.7c0.5,0.4,1.2,0.5,2,0.5c0.8,0,1.4-0.2,1.9-0.4
		c0.5-0.3,0.8-0.6,1-1c0.2-0.4,0.3-0.8,0.4-1.1c0-0.3,0-0.6,0-0.7v-2.1h0c-0.7,1.4-1.8,2.1-3.3,2.1c-1.3,0-2.3-0.5-3-1.3
		c-0.7-0.9-1-1.9-1-3.2c0-1.3,0.3-2.3,1-3.2c0.7-0.9,1.7-1.3,2.9-1.3c0.7,0,1.4,0.2,2,0.5c0.6,0.4,1,0.9,1.3,1.6h0v-1.9H298z
		 M291.5,221.1c-0.6,0.8-0.8,1.7-0.8,2.7c0,1.1,0.3,2,0.9,2.8c0.6,0.8,1.4,1.2,2.5,1.2c1.1,0,2-0.4,2.5-1.2c0.5-0.8,0.8-1.7,0.8-2.7
		c0-1.1-0.3-2-0.8-2.8s-1.4-1.2-2.5-1.2C292.8,219.9,292,220.3,291.5,221.1z"/>
	<path class="st0" d="M305.4,225.7c0.1,0.8,0.4,1.5,0.9,2c0.6,0.5,1.3,0.7,2.1,0.7c0.3,0,0.6,0,1-0.1c0.3,0,0.7-0.1,0.9-0.3
		c0.3-0.1,0.5-0.4,0.7-0.6c0.2-0.3,0.3-0.6,0.3-0.9c0-0.4-0.1-0.7-0.2-1c-0.2-0.3-0.4-0.4-0.7-0.6c-0.3-0.1-0.6-0.3-1-0.3
		c-0.4-0.1-0.8-0.2-1.2-0.2c-0.4-0.1-0.8-0.2-1.1-0.3c-0.4-0.1-0.7-0.2-1-0.4c-0.3-0.2-0.5-0.4-0.7-0.7c-0.2-0.3-0.3-0.7-0.3-1.2
		s0.1-0.9,0.3-1.2c0.2-0.3,0.5-0.5,0.8-0.7c0.7-0.3,1.4-0.5,2.2-0.5c1,0,1.8,0.2,2.5,0.7c0.6,0.5,0.9,1.2,1,2.3h-0.7
		c0-0.8-0.3-1.4-0.8-1.8c-0.5-0.4-1.2-0.5-2-0.5c-0.7,0-1.3,0.1-1.8,0.4c-0.3,0.1-0.5,0.3-0.6,0.5c-0.2,0.2-0.3,0.5-0.3,0.9
		c0,0.4,0.1,0.7,0.3,0.9c0.2,0.2,0.4,0.4,0.7,0.6c0.1,0.1,0.3,0.1,0.5,0.2c0.2,0.1,0.3,0.1,0.5,0.2c0.2,0,0.4,0.1,0.6,0.1
		c0.2,0,0.4,0.1,0.5,0.1c0.9,0.1,1.7,0.4,2.3,0.8c0.3,0.2,0.5,0.4,0.7,0.8c0.2,0.3,0.2,0.7,0.2,1.2c0,0.5-0.1,0.9-0.3,1.2
		c-0.2,0.3-0.5,0.6-0.9,0.8c-0.3,0.2-0.7,0.3-1.2,0.4c-0.4,0.1-0.9,0.1-1.3,0.1c-1.1,0-1.9-0.3-2.6-0.9c-0.7-0.5-1.1-1.4-1.1-2.4
		H305.4z"/>
	<path class="st0" d="M312.6,219.5h0.8l3.4,8.4l3.2-8.4h0.8l-4,10.2c-0.2,0.4-0.3,0.8-0.5,1.2c-0.2,0.3-0.4,0.6-0.6,0.7
		c-0.4,0.3-1.2,0.4-2.2,0.4v-0.6c0.5,0,0.9,0,1.2-0.1c0.3-0.1,0.5-0.2,0.8-0.5c0.2-0.3,0.6-1,1-2.2L312.6,219.5z"/>
	<path class="st0" d="M322,225.7c0.1,0.8,0.4,1.5,0.9,2c0.6,0.5,1.3,0.7,2.1,0.7c0.3,0,0.6,0,1-0.1c0.3,0,0.7-0.1,0.9-0.3
		c0.3-0.1,0.5-0.4,0.7-0.6c0.2-0.3,0.3-0.6,0.3-0.9c0-0.4-0.1-0.7-0.2-1c-0.2-0.3-0.4-0.4-0.7-0.6c-0.3-0.1-0.6-0.3-1-0.3
		c-0.4-0.1-0.8-0.2-1.2-0.2c-0.4-0.1-0.8-0.2-1.2-0.3c-0.4-0.1-0.7-0.2-1-0.4c-0.3-0.2-0.6-0.4-0.7-0.7c-0.2-0.3-0.3-0.7-0.3-1.2
		s0.1-0.9,0.3-1.2c0.2-0.3,0.5-0.5,0.8-0.7c0.7-0.3,1.4-0.5,2.2-0.5c1,0,1.8,0.2,2.5,0.7c0.6,0.5,0.9,1.2,1,2.3h-0.7
		c0-0.8-0.3-1.4-0.8-1.8c-0.5-0.4-1.2-0.5-2-0.5c-0.7,0-1.3,0.1-1.8,0.4c-0.3,0.1-0.5,0.3-0.6,0.5c-0.2,0.2-0.3,0.5-0.3,0.9
		c0,0.4,0.1,0.7,0.3,0.9c0.2,0.2,0.4,0.4,0.7,0.6c0.1,0.1,0.3,0.1,0.5,0.2c0.2,0.1,0.3,0.1,0.5,0.2c0.2,0,0.4,0.1,0.6,0.1
		c0.2,0,0.4,0.1,0.5,0.1c0.9,0.1,1.7,0.4,2.3,0.8c0.3,0.2,0.5,0.4,0.7,0.8c0.2,0.3,0.2,0.7,0.2,1.2c0,0.5-0.1,0.9-0.3,1.2
		c-0.2,0.3-0.5,0.6-0.9,0.8c-0.3,0.2-0.7,0.3-1.2,0.4c-0.4,0.1-0.9,0.1-1.3,0.1c-1.1,0-1.9-0.3-2.6-0.9c-0.7-0.5-1.1-1.4-1.1-2.4
		H322z"/>
	<path class="st0" d="M333.7,220.1h-2v6.5c0,0.7,0.2,1.2,0.5,1.4c0.3,0.2,0.8,0.3,1.5,0.2v0.6c-0.4,0-0.7,0-1,0
		c-0.3,0-0.6-0.1-0.9-0.3c-0.3-0.1-0.5-0.4-0.6-0.7c-0.1-0.3-0.2-0.7-0.2-1.2v-6.5h-1.7v-0.6h1.7v-2.9h0.7v2.9h2V220.1z"/>
	<path class="st0" d="M335.2,224.2c0,1.1,0.3,2.1,0.9,2.9c0.6,0.8,1.4,1.3,2.5,1.3c1.8,0,2.9-0.9,3.3-2.7h0.7
		c-0.4,2.2-1.7,3.3-4,3.3c-1.4,0-2.4-0.5-3.1-1.4c-0.7-0.9-1-2-1-3.3c0-1.3,0.3-2.5,1-3.5c0.7-1,1.7-1.5,3.1-1.5
		c1.5,0,2.5,0.5,3.2,1.5c0.7,0.9,1,2.1,0.9,3.5H335.2z M342,223.6c0-1-0.3-1.9-0.9-2.6c-0.6-0.7-1.4-1.1-2.5-1.1
		c-1,0-1.8,0.4-2.4,1.2c-0.6,0.8-0.9,1.6-1,2.6H342z"/>
	<path class="st0" d="M344.3,219.5h0.7v1.9h0c0.2-0.6,0.5-1.1,1-1.5c0.5-0.4,1.2-0.6,1.9-0.6c0.4,0,0.8,0.1,1.2,0.2
		c0.3,0.1,0.6,0.3,0.8,0.4c0.4,0.4,0.7,0.8,0.8,1.4h0c0.5-1.3,1.5-1.9,2.9-2c0.9,0,1.6,0.2,2.1,0.7c0.5,0.5,0.8,1.3,0.8,2.4v6.3
		h-0.7v-6.3c0-0.6-0.1-1.1-0.3-1.4c-0.2-0.3-0.4-0.6-0.6-0.7c-0.2-0.2-0.5-0.3-0.7-0.3c-0.2,0-0.4-0.1-0.6-0.1
		c-0.8,0-1.5,0.3-2.1,0.9c-0.5,0.6-0.8,1.4-0.8,2.5v5.5h-0.7v-6.3c0-0.6-0.1-1.1-0.3-1.4c-0.2-0.3-0.4-0.6-0.6-0.7
		c-0.2-0.2-0.5-0.3-0.7-0.3c-0.2,0-0.4-0.1-0.6-0.1c-0.7,0-1.3,0.3-1.9,0.8c-0.6,0.5-1,1.4-1,2.6v5.5h-0.7V219.5z"/>
</g>
<g>
	<path class="st0" d="M103.3,173.3h21.3c3.7,0,6.8,1,9.2,2.9c2.5,1.9,4.3,4.2,5.4,6.9c1.2,2.9,1.3,5.5,0.4,7.7
		c-0.9,2.2-3.2,3.6-7,4.2c3.1,1.9,8.1,7.2,14.8,15.7h-12.2c-2.1-2.7-4.5-5.7-7.2-8.9c-2.7-3.2-4.5-5.1-5.4-5.6
		c-0.9-0.5-1.9-0.8-2.8-0.8h-0.6l3,15.2h-11.6L103.3,173.3z M117.8,188.5h2.2c3.7,0,6-0.2,6.9-0.5c0.9-0.3,1.5-0.9,1.7-1.7
		c0.2-0.8,0.1-1.6-0.2-2.3c-0.4-1-1-1.7-1.9-2.2c-0.9-0.5-2.3-0.8-4.4-0.8h-5.9L117.8,188.5z"/>
	<path class="st0" d="M174.6,173.3l1.5,8h-19l1.2,6h18.3l1.4,7.6h-18.3l1.4,7.3h20.6l1.6,8.5h-32.2l-7.2-37.5H174.6z"/>
	<path class="st0" d="M181.8,173.3h17c3.2,0,5.8,0.4,7.7,1.1c1.9,0.8,3.6,1.9,5.1,3.4c1.5,1.5,2.6,3.3,3.5,5.5
		c1.1,2.8,1.4,5.3,0.8,7.5c-0.6,2.2-1.9,3.8-3.8,4.7c-1.9,1-4.9,1.4-9,1.4h-5.1l2.7,13.8h-11.7L181.8,173.3z M196.5,189.5h3.9
		c1.8,0,3.1-0.5,3.8-1.6c0.7-1.1,0.8-2.4,0.2-3.8c-0.9-2.2-2.6-3.4-5-3.4h-4.5L196.5,189.5z"/>
	<path class="st0" d="M253.8,201.6l1.8,9.1h-30.2l-7.2-37.5h11.7l5.4,28.3H253.8z"/>
	<path class="st0" d="M265.3,173.3l7.1,37.5h-11.7l-7.1-37.5H265.3z"/>
	<path class="st0" d="M309.7,185.6l-10.1,1.2l-0.1-0.2c-0.7-1.8-1.8-3.2-3.3-4.1c-1.4-0.9-2.8-1.3-4.1-1.3c-1.7,0-3.1,0.6-4.2,1.9
		c-1.1,1.3-1.6,3.2-1.6,5.7c0.1,2.6,0.6,5.1,1.6,7.5c0.8,1.9,1.9,3.4,3.4,4.7c1.5,1.3,3.2,1.9,5.2,1.9c1.8,0,3-0.6,3.8-1.7
		c0.8-1.1,1.1-2.9,1.1-5.2l11.5,1.7c0.4,3.9-0.4,7.1-2.6,9.8c-2.2,2.6-5.8,4-11,4c-5.4,0-10.1-1.4-14.1-4.3c-4-2.9-7-6.7-8.9-11.5
		c-1.5-3.7-2.1-7.3-1.9-11c0.2-3.7,1.5-6.6,3.9-8.7c2.4-2.1,5.9-3.2,10.4-3.2c4.7,0,8.9,1.2,12.6,3.6
		C304.9,178.6,307.7,181.7,309.7,185.6z"/>
	<path class="st0" d="M354.9,210.8h-11.3l-3-6.1h-12.7l-0.4,6.1h-11.9l6-37.5h12.3L354.9,210.8z M336.6,196.7l-7-13.8h-0.1
		l-1.1,13.8H336.6z"/>
</g>
<path class="st1" d="M164.2,122c-1.9-10.3-6.4-19.6-12.6-28c-12.6-17-28.4-29.2-49.7-33.3c-14.6-2.8-27.8,3.2-34.9,16.4
	c-7.2,13.2-8,27.1-5.5,41.5c1,5.7,3.5,10.7,5.8,16.3c-10.5,4.6-15.6,12.5-13.2,23.7c2.1,9.9,9.7,14,19.3,15.1l20.2,37l0.9,0.4
	l1.2-0.1l-9.3-43.4c2.2-2.8,3.8-5.4,4.9-8.6c0.8,0,1.1-0.1,1.2,0c0.8,0.3,1.7,0.5,2.5,0.9c13.4,5.7,27.2,6.5,41.2,2.9
	c8-2.1,15.3-5.8,20.9-11.9C164.8,142.7,166.2,132.6,164.2,122z M73,159.5c-2.9,0-5.3-2.4-5.3-5.3c0-2.9,2.4-5.3,5.3-5.3
	s5.3,2.4,5.3,5.3C78.3,157.1,76,159.5,73,159.5z M86.6,137.8c-3.8-3.9-6.9-11.2-6.9-11.2s4.4,6.1,8.7,10.5c4.4,4.6,9.4,8,9.4,8
	S91.6,143,86.6,137.8z M132.4,145.2c-9.8-1.4-18.4-5.7-26.1-11.7c-10.7-8.4-19.3-18.4-24-31.4c-1.4-3.7-2.3-7.5-2.1-11.2
	c0-1.2,0-2.1,0-3c-0.2-8.4,6-12.9,13.2-13.5c7-0.6,13.6,1.5,19.6,4.6c16.7,8.7,29.1,21.5,35.8,39.4c1.4,3.7,1.7,7.6,2,11.6
	C151.2,139.8,143.7,146.8,132.4,145.2z M98.3,117.6c2.9,3.2,5.8,6.4,9.1,10c5.7-5.8,11.6-11.1,16.8-17.1c-3.4-3.4-6.5-6.4-9-8.8
	C109.4,107.1,103.6,112.6,98.3,117.6z"/>
</svg>
